<svg xmlns="http://www.w3.org/2000/svg" viewBox="0 0 128 128"><ellipse class="background" cy="64" cx="64" ry="64" rx="64"/><path class="path" d="M51.16 75.72H92v5.978H51.16zm-10.603-1.566c2.51 0 4.553 2.047 4.553 4.56 0 2.52-2.042 4.54-4.553 4.54-2.52 0-4.557-2.02-4.557-4.54 0-2.513 2.037-4.56 4.557-4.56zM51.16 60.468H92v5.98H51.16zm-10.603-1.575c2.51 0 4.553 2.04 4.553 4.56 0 2.52-2.042 4.55-4.553 4.55-2.52 0-4.557-2.03-4.557-4.55s2.037-4.56 4.557-4.56zM51.16 46.188H92v5.98H51.16zm-10.603-1.443c2.51 0 4.553 2.03 4.553 4.558 0 2.513-2.042 4.552-4.553 4.552-2.52 0-4.557-2.04-4.557-4.552 0-2.528 2.037-4.558 4.557-4.558z"/></svg>