<svg xmlns="http://www.w3.org/2000/svg" viewBox="0 0 128 128"><ellipse class="background" cy="64" cx="64" ry="64" rx="64"/><path class="path" d="M49.324 87.525h.002c.003.002.002.004 0 .008zm-8.88-8.873l.436.01c4.37.23 8.194 3.846 8.433 8.41l.01.453h-.015C48.736 87.58 36 91.975 36 91.975zm-.002 0zm35.824-35.908c4.736 0 8.972 4.72 8.953 8.953.25-.258-33.11 32.61-32.864 32.865 0-4.227-4.725-8.96-8.967-8.96l32.876-32.857zm8.813-6.72c.9-.018 1.878.26 2.768 1.148 2.583 2.586.273.27 2.96 2.96v-.003c2.685 2.685-.005 5.92 0 5.923l-2.96 2.963c0-4.185-4.694-8.885-8.89-8.875.243-.256 2.962-2.968 2.962-2.968s1.44-1.113 3.16-1.148z"/></svg>