<svg xmlns="http://www.w3.org/2000/svg" viewBox="0 0 128 128"><ellipse cy="64" cx="64" ry="64" rx="64" class="background"/><path class="path" d="M45.82 36c2.8 0 5.78 1.05 7.88 3.152 2.978 2.978 3.853 7.007 2.803 10.684L78.22 71.553c3.502-1.052 7.53-.175 10.508 2.802 2.45 2.45 3.503 5.955 3.153 9.107l-5.08-5.254c-2.276-2.277-6.128-2.277-8.58 0-2.453 2.452-2.453 6.13 0 8.582l5.08 5.08c-3.154.524-6.656-.526-9.108-3.153-2.804-2.803-3.854-7.007-2.804-10.51L49.672 56.492c-3.678 1.053-7.707.176-10.683-2.8-2.278-2.453-3.33-5.78-2.803-8.933l5.078 5.08c2.277 2.275 6.13 2.275 8.583 0 2.45-2.278 2.45-6.132 0-8.583l-5.08-5.08c.35-.174.7-.174 1.05-.174z"/></svg>