<svg xmlns="http://www.w3.org/2000/svg" viewBox="0 0 128 128"><ellipse class="background" cy="64" cx="64" ry="64" rx="64"/><path class="path" d="M86.825 71.532l-8.937 8.94-4.23-4.238-1.65 1.647 5.88 5.88 10.587-10.58zm-6.583-5.407C86.706 66.125 92 71.418 92 77.88c0 6.465-5.294 11.76-11.758 11.76-6.463 0-11.757-5.295-11.757-11.76 0-6.462 5.294-11.755 11.757-11.755zM64.902 38.36h6.43v14.207h-6.43zm-24.494 0h7.47v13.717c0 2.03 1.646 3.675 3.676 3.675H70.29c2.03 0 3.676-1.645 3.676-3.675V38.36h5.063l6.815 6.817V64.94c-1.718-.748-3.612-1.167-5.602-1.167-7.78 0-14.108 6.327-14.108 14.108 0 3.825 1.533 7.293 4.013 9.836h-29.74c-2.434 0-4.408-1.972-4.408-4.408v-40.54c0-2.433 1.974-4.407 4.408-4.407z"/></svg>