<svg xmlns="http://www.w3.org/2000/svg" viewBox="0 0 128 128"><ellipse class="background" cy="64" cx="64" ry="64" rx="64"/><path class="path" d="M67.227 58.748c-3.042 0-5.518 2.478-5.518 5.522 0 3.045 2.475 5.523 5.517 5.523 3.04 0 5.518-2.478 5.518-5.523 0-3.044-2.477-5.522-5.518-5.522zm0-3.5c4.973 0 9.018 4.046 9.018 9.022 0 4.975-4.045 9.023-9.018 9.023-1.71 0-3.31-.48-4.673-1.31l-.172-.11-8.2 7.88-2.425-2.523 8.095-7.778-.1-.14c-.974-1.44-1.543-3.177-1.543-5.042 0-4.976 4.043-9.022 9.017-9.022zM44.75 50h8.75c.968 0 1.75.784 1.75 1.75s-.782 1.75-1.75 1.75h-8.75c-.968 0-1.75-.784-1.75-1.75S43.782 50 44.75 50zm-5.25-3.5v35h49v-28H64.952c-3.022 0-5.616-2.055-6.305-4.998l-.47-2.002zm-.402-3.5h19.496c1.38 0 2.58.952 2.896 2.296l.564 2.408C62.37 49.048 63.57 50 64.952 50h23.95C90.612 50 92 51.386 92 53.097v28.806C92 83.613 90.612 85 88.902 85H39.098C37.386 85 36 83.614 36 81.903V46.097C36 44.387 37.386 43 39.098 43z"/></svg>