<?xml version="1.0" encoding="utf-8"?>
<svg xmlns="http://www.w3.org/2000/svg" height="128" width="128" viewBox="0 0 128 128">
  <g>
    <ellipse cy="64" cx="64" ry="64" rx="64" fill="#FFFCFC" />
    <path id="path1" transform="rotate(0,64,64) translate(43,36) scale(1.75,1.75)  " fill="#000000" d="M12,13.000023C12.552,13.000023,13,13.448023,13,14.000023L13,19.000023 18,19.000023C18.552002,19.000023 19,19.448021 19,20.000023 19,20.552025 18.552002,21.000023 18,21.000023L13,21.000023 13,26.000023C13,26.552023 12.552,27.000023 12,27.000023 11.448,27.000023 11,26.552023 11,26.000023L11,21.000023 5.9999998,21.000023C5.447998,21.000023 5,20.552025 5.0000003,20.000023 5,19.448021 5.447998,19.000023 5.9999998,19.000023L11,19.000023 11,14.000023C11,13.448023,11.448,13.000023,12,13.000023z M6.9999999,3.4140005L3.3829868,7.0310135 6.9999999,7.0310135z M9,2L9,9.0310116 2.0000002,9.0310116 2.0000002,30.000001 22,30.000001 22,2z M7.5859997,0L22,0C23.103001,0,24,0.89700127,24,2L24,30.000001C24,31.103001,23.103001,32.000001,22,32.000001L2.0000002,32.000001C0.89699984,32.000001,0,31.103001,0,30.000001L0,7.5860004z" />
  </g>
</svg>

